<svg width="283" height="284" viewBox="0 0 283 284" fill="none" xmlns="http://www.w3.org/2000/svg">
<path d="M106.644 149.316C98.9006 141.224 86.0584 140.942 77.9648 148.687C69.8711 156.431 69.5895 169.271 77.3327 177.363C85.0814 185.461 97.9165 185.744 106.012 177.998C114.107 170.252 114.392 157.414 106.644 149.316ZM153.805 81.6012C145.713 89.3444 145.43 102.185 153.173 110.277C160.922 118.375 173.757 118.653 181.849 110.909C189.943 103.165 190.232 90.3299 182.483 82.2319C174.74 74.1397 161.9 73.8553 153.805 81.6012ZM170.127 125.304C167.906 125.023 165.073 124.95 161.958 125.01C152.06 123.511 141.603 126.42 133.811 133.875C126.876 140.511 123.452 149.412 123.524 158.307C123.104 162.88 122.913 167.135 123.17 170.238L123.33 172.303C124.067 181.925 124.981 193.9 135.913 205.244C146.067 215.777 162.909 216.145 173.449 206.06C176.38 203.267 178.626 199.835 180.012 196.032C181.399 192.228 181.887 188.156 181.441 184.132C185.442 184.756 189.533 184.447 193.395 183.229C197.257 182.011 200.785 179.917 203.703 177.11C214.239 167.029 214.613 150.19 204.538 139.579C193.687 128.158 181.763 126.718 172.183 125.556L170.127 125.304Z" fill="#F4C815"/>
<path d="M125.882 123.555C134.801 115.022 135.113 100.874 126.579 91.9554C118.045 83.037 103.897 82.7251 94.9788 91.2589C86.0604 99.7927 85.7485 113.94 94.2823 122.859C102.816 131.777 116.964 132.089 125.882 123.555Z" fill="#F4C815"/>
</svg>
